<svg width="220" height="122" viewBox="0 0 220 122" fill="none" xmlns="http://www.w3.org/2000/svg">
<path fill-rule="evenodd" clip-rule="evenodd" d="M215.832 61.0223L216 61.396L215.889 61.3568C216 62.5135 216 64.0153 216 66.0189C216 77.8985 214.634 79.9662 214.056 80.6708C213.692 81.1174 213.023 81.643 212.341 82.1797C211.556 82.7978 210.752 83.4305 210.372 83.9735C209.606 85.0639 209.196 87.8234 208.834 90.2635C208.702 91.1525 208.577 91.999 208.442 92.7069C207.899 95.5771 207.327 98.1911 206.665 100.565L200.259 97.6663C200.722 95.6809 201.108 93.4845 201.498 91.0628C201.687 89.8891 201.917 88.6919 202.149 87.4831C203.154 82.2516 204.201 76.8005 202.193 72.0797C200.827 68.8447 198.459 64.3107 190.177 64.3107C184.155 64.3107 154.471 64.7054 136.038 68.6048L123.5 62.9309C127.219 62.3725 131.301 61.6577 135.977 60.8388C136.633 60.724 137.3 60.6072 137.979 60.4885L138.612 60.3774C151.017 58.2023 163.653 55.9865 179.427 55.9865C190.484 55.9865 199.943 56.3353 205.257 56.7018C190.951 28.2629 178.126 9.62147 173.2 7.21567C169.251 5.28511 159.997 16.9624 153.663 24.9546C151.999 27.0545 150.536 28.9001 149.425 30.1775C145.105 35.1422 141.621 22.7786 148.775 15.4651C155.93 8.15166 171.36 -4.06596 176.695 1.33997C195.973 20.8568 210.311 49.3207 214.638 58.4492C215.312 58.9795 215.672 59.766 215.832 61.0223ZM32.5621 21.7792C38.0432 13.5075 42.3775 8.39714 44.8 7.21567C48.7474 5.28573 57.9926 16.955 64.3244 24.9469C65.9907 27.0501 67.4552 28.8986 68.5683 30.1775C72.8875 35.1457 76.3757 22.7786 69.2174 15.4651C62.0627 8.15166 46.6404 -4.06596 41.2975 1.33997C35.9524 6.75244 30.987 12.8538 26.5096 19.0403L32.5621 21.7792ZM21.8715 25.7225L28.2269 28.5984C27.0547 30.5125 25.8461 32.5396 24.6068 34.6739L18.0212 31.6938C19.2462 29.7313 20.5308 27.7339 21.8715 25.7225ZM13.8634 38.5932C8.82594 47.2479 5.19838 54.583 3.36603 58.4492C2.69193 58.9759 2.32813 59.7696 2.16763 61.0223L2 61.396L2.11057 61.3568C2 62.5099 2 64.0153 2 66.0189C2 77.8985 3.36603 79.9662 3.94383 80.6708C4.30762 81.1184 4.97779 81.6454 5.66173 82.1833C6.4463 82.8003 7.249 83.4316 7.6282 83.9735C8.39227 85.0611 8.7979 87.8097 9.15733 90.2453C9.2895 91.1408 9.41543 91.9941 9.55063 92.7069C13.5346 113.719 19.0308 121 50.3854 121C79.575 121 93.9594 112.352 99.4485 90.9916C99.6446 90.2291 99.9125 88.2695 100.187 86.2585C100.487 84.0642 100.796 81.8087 101.028 80.9805C101.203 80.3541 101.781 79.4181 103.3 79.1832C103.372 79.1764 103.444 79.1697 103.516 79.1631L93.1903 74.4906C94.3703 76.4662 94.8543 79.1471 94.0985 82.8418C93.6332 84.9447 93.1195 87.0367 92.5577 89.116C88.6272 103.914 79.9495 113.779 50.3854 113.779C21.7344 113.779 19.1913 107.814 16.4949 91.0628C16.3052 89.8789 16.0739 88.6712 15.8403 87.4516C14.8402 82.2297 13.7986 76.791 15.7994 72.0797C17.1726 68.8483 19.5337 64.3107 27.8227 64.3107C33.5151 64.3107 60.3445 64.6601 78.8335 67.9938L53.8299 56.6791C49.036 56.2478 43.9897 55.9865 38.5726 55.9865C27.5159 55.9865 18.0607 56.3353 12.7428 56.6983C15.4465 51.3229 18.0975 46.2975 20.6524 41.6654L13.8634 38.5932ZM82.6815 60.9542L123.534 79.4409C123.553 76.492 124.561 74.3957 126.064 72.8722L106.856 64.1799C99.959 63.9593 92.6921 62.7069 82.6815 60.9542ZM197.433 105.168C196.099 107.316 194.303 109.012 191.752 110.311L199.432 113.787C201.212 112.184 202.634 110.283 203.811 108.055L197.433 105.168ZM190.562 118.554L179.043 113.341C175.784 113.639 172.006 113.779 167.615 113.779C138.043 113.779 129.369 103.917 125.442 89.116C125.439 89.1044 125.436 89.0929 125.433 89.0813L117.718 85.5901C117.747 85.7962 117.775 86.0031 117.803 86.2096C118.081 88.2377 118.354 90.2229 118.552 90.9916C124.041 112.352 138.425 121 167.615 121C177.644 121 185.028 120.255 190.562 118.554Z" fill="black"/>
<path d="M3.20127 24.9877C1.43325 24.1876 0.648585 22.1058 1.44866 20.3378C2.24873 18.5698 4.33057 17.7851 6.09858 18.5852L216.508 113.801C218.276 114.601 219.061 116.683 218.261 118.451C217.461 120.219 215.379 121.003 213.611 120.203L3.20127 24.9877Z" fill="black"/>
</svg>
