<!-- Generated by IcoMoon.io -->
<svg version="1.1" xmlns="http://www.w3.org/2000/svg" width="61" height="32" viewBox="0 0 61 32">
<title>logo-full</title>
<path d="M1.488 31.962c-0.752-0.010-1.381-0.032-1.397-0.048-0.052-0.053-0.086-3.517-0.088-9.25l-0.003-5.648 1.106 0.021c0.609 0.012 2.781 0.031 4.828 0.043l3.722 0.022 0.42 0.21c1.282 0.64 2.095 1.51 2.506 2.68l0.106 0.302 0.001 1.078c0.001 1.217-0.007 1.264-0.3 1.851-0.202 0.405-0.362 0.805-0.362 0.906 0 0.042 0.113 0.227 0.251 0.41 0.632 0.838 0.84 1.259 0.975 1.974 0.255 1.348-0.054 2.717-0.844 3.738-0.52 0.673-1.353 1.258-2.16 1.518-0.404 0.13-0.899 0.158-3.121 0.177-1.165 0.010-2.603 0.022-3.196 0.027s-1.694 0.001-2.446-0.010zM8.68 28.634c0.293-0.058 0.481-0.157 0.679-0.355 0.549-0.549 0.52-1.482-0.062-1.973-0.352-0.297-0.709-0.336-3.112-0.338-1.991-0.001-2.404 0.020-2.515 0.131-0.098 0.098-0.132 0.501-0.132 1.558 0 0.685 0.012 0.908 0.049 0.946 0.072 0.072 1.046 0.099 3.109 0.087 1.168-0.007 1.835-0.026 1.985-0.056zM8.273 22.597c0.226-0.021 0.243-0.030 0.412-0.217 0.255-0.283 0.344-0.432 0.411-0.687 0.171-0.658-0.259-1.249-1.007-1.383-0.564-0.101-3.997-0.081-4.373 0.025-0.142 0.040-0.177 0.257-0.177 1.093 0 0.821 0.035 1.044 0.178 1.123 0.048 0.026 0.31 0.055 0.613 0.067 0.64 0.025 3.612 0.010 3.942-0.020zM47.13 31.964c-0.733-0.033-0.87-0.065-0.87-0.203 0-0.236 0.6-2.11 0.852-2.662 0.094-0.205 0.147-0.277 0.213-0.291 0.049-0.010 0.139-0.029 0.202-0.042s1.892-0.039 4.066-0.057c2.393-0.020 4.035-0.049 4.16-0.072 0.247-0.046 0.369-0.129 0.482-0.328 0.161-0.281 0.078-0.728-0.169-0.91-0.227-0.167-1.24-0.731-3.471-1.933-1.516-0.817-2.535-1.39-2.829-1.593-0.538-0.37-1.065-1.225-1.302-2.113-0.086-0.321-0.099-0.446-0.099-0.938-0-0.506 0.011-0.604 0.101-0.908 0.344-1.153 1.189-2.15 2.188-2.582 0.62-0.268 0.347-0.255 5.315-0.255 3.025 0 4.484 0.013 4.51 0.039s-0.036 0.257-0.201 0.738c-0.41 1.193-0.79 2.248-0.822 2.284-0.027 0.030-4.157 0.127-5.707 0.134l-0.511 0.002-0.189 0.228c-0.272 0.327-0.326 0.459-0.312 0.759 0.021 0.462 0.156 0.582 1.541 1.366 0.385 0.218 1.279 0.708 1.986 1.089 3.026 1.63 3.421 1.923 3.93 2.916 0.24 0.468 0.259 0.604 0.242 1.71-0.014 0.915-0.019 0.962-0.113 1.209-0.321 0.842-1.091 1.649-1.942 2.034-0.464 0.211-0.861 0.301-1.493 0.34-0.742 0.046-8.873 0.076-9.759 0.037zM24.454 31.94c-1.269-0.126-2.037-0.307-3.142-0.738-1.475-0.576-2.684-1.346-3.705-2.36-1.658-1.646-2.864-3.901-3.137-5.863-0.149-1.074-0.184-2.801-0.074-3.656 0.126-0.979 0.501-2.203 0.964-3.152 1.277-2.617 3.511-4.578 6.465-5.675 0.943-0.35 1.425-0.618 1.867-1.037 0.402-0.381 0.724-0.863 0.898-1.348 0.069-0.19 0.084-0.334 0.099-0.944 0.023-0.896-0.016-1.176-0.22-1.604-0.202-0.424-0.418-0.719-0.778-1.063-0.502-0.479-1.066-0.785-1.782-0.967-0.54-0.137-0.934-0.117-1.624 0.081-0.981 0.283-1.726 0.905-2.169 1.813-0.236 0.483-0.338 0.876-0.365 1.4-0.041 0.811 0.139 1.428 0.637 2.182 0.166 0.251 0.293 0.478 0.282 0.506s-0.143 0.136-0.296 0.242c-0.871 0.605-1.217 0.857-1.506 1.095-0.432 0.357-0.748 0.571-0.844 0.571-0.045 0-0.16-0.084-0.271-0.199-0.467-0.482-1.141-1.879-1.322-2.738-0.137-0.649-0.149-2.102-0.025-2.85 0.411-2.475 2.502-4.729 4.996-5.388 0.691-0.182 1.031-0.225 1.816-0.226 1.061-0.002 1.802 0.144 2.726 0.536 1.572 0.667 2.823 1.855 3.572 3.395 1.416 2.909 0.608 6.441-1.937 8.471-0.693 0.553-1.427 0.941-2.426 1.285-2.404 0.826-4.065 2.37-4.94 4.594-0.525 1.333-0.619 3.056-0.248 4.511 0.244 0.958 0.662 1.852 1.154 2.473 0.466 0.588 1.542 1.647 1.965 1.934 0.587 0.399 1.519 0.824 2.225 1.015 1.306 0.353 2.915 0.315 4.225-0.1 2.362-0.749 4.098-2.492 4.931-4.954 0.544-1.608 0.4-3.728-0.369-5.416-0.353-0.774-0.895-1.535-1.542-2.166-0.63-0.614-1.080-0.932-1.962-1.389-0.281-0.145-0.591-0.315-0.689-0.376-0.175-0.109-0.178-0.114-0.125-0.212 0.029-0.055 0.243-0.339 0.474-0.63s0.597-0.796 0.814-1.121c0.217-0.325 0.454-0.655 0.528-0.733 0.119-0.127 0.148-0.139 0.271-0.119 0.43 0.070 1.845 0.958 2.605 1.635 1.171 1.043 2.096 2.242 2.744 3.554 0.144 0.291 0.309 0.582 0.368 0.647l0.107 0.117 0.546 0.024c0.301 0.013 2.563 0.033 5.029 0.044s4.844 0.030 5.286 0.042l0.803 0.022-0.022 0.1c-0.062 0.28-0.244 0.849-0.591 1.847l-0.384 1.105-0.191 0.018c-0.105 0.010-0.702 0.037-1.326 0.059-1.117 0.040-1.711 0.090-1.77 0.149-0.053 0.053-0.099 1.612-0.139 4.82-0.022 1.731-0.050 3.951-0.063 4.934l-0.023 1.787h-3.386l-0.024-1.712c-0.013-0.941-0.033-2.792-0.045-4.113-0.026-2.904-0.079-5.159-0.129-5.464-0.020-0.124-0.062-0.25-0.092-0.28-0.080-0.080-0.922-0.118-1.951-0.088l-0.851 0.025-0.064 0.851c-0.076 0.997-0.176 1.672-0.357 2.395-0.332 1.322-0.834 2.459-1.583 3.582-0.457 0.685-0.755 1.044-1.397 1.684-1.698 1.693-3.798 2.724-6.246 3.066-0.392 0.055-1.938 0.102-2.267 0.069zM0.908 15.13c-0.364-0.016-0.708-0.048-0.763-0.070-0.139-0.055-0.164-0.255-0.112-0.887 0.065-0.786 0.235-1.331 0.614-1.962 0.24-0.399 0.441-0.664 1.287-1.698 1.682-2.054 5.234-6.603 5.404-6.919 0.023-0.044 0.025-0.081 0.004-0.094-0.104-0.064-1.324-0.102-4.077-0.128-1.69-0.016-3.080-0.037-3.090-0.047-0.036-0.035-0.032-2.891 0.004-3.004 0.033-0.105 0.054-0.116 0.279-0.147 0.134-0.019 2.796-0.036 5.917-0.038 5.895-0.004 6.034-0.001 6.183 0.149 0.133 0.134 0.024 1.693-0.156 2.229-0.166 0.496-0.408 0.846-1.358 1.968-0.876 1.034-3.962 4.802-5.173 6.316-0.427 0.534-0.655 0.897-0.599 0.953 0.066 0.066 0.733 0.085 3.955 0.11l3.344 0.026-0.024 1.445c-0.027 1.601-0.041 1.711-0.234 1.77-0.143 0.044-10.496 0.069-11.404 0.028zM42.925 15.13c-1.368-0.046-1.911-0.143-2.513-0.447-0.455-0.23-0.987-0.722-1.457-1.35-0.2-0.267-0.365-0.511-1.101-1.626-0.641-0.972-0.83-1.214-1.075-1.377-0.422-0.279-0.689-0.303-3.814-0.344-1.415-0.018-2.61-0.045-2.657-0.059-0.113-0.034-0.111-0.163 0.006-0.666 0.101-0.432 0.189-0.986 0.248-1.564 0.043-0.418 0.105-0.761 0.155-0.856s0.657-0.112 5.124-0.146c2.78-0.021 4.060-0.044 4.178-0.074 0.352-0.089 0.861-0.522 1.037-0.881 0.184-0.377 0.168-0.937-0.039-1.376-0.121-0.255-0.338-0.498-0.651-0.726l-0.255-0.186-2.608-0.026c-5.709-0.057-7.514-0.107-7.641-0.213-0.026-0.022-0.13-0.187-0.231-0.368-0.276-0.493-0.944-1.493-1.284-1.919-0.395-0.495-0.431-0.55-0.431-0.648 0-0.074 0.027-0.086 0.255-0.114 0.367-0.045 10.381-0.025 11.622 0.023 1.119 0.044 1.373 0.080 1.84 0.266 1.312 0.521 2.411 1.656 2.935 3.032l0.121 0.317 0.014 1.116c0.016 1.346-0.002 1.466-0.328 2.14-0.629 1.301-1.487 2.112-2.778 2.624-0.416 0.165-0.669 0.299-0.669 0.353 0.001 0.094 0.183 0.431 0.356 0.66 0.42 0.556 0.954 0.898 1.61 1.032 0.405 0.083 1.707 0.17 1.961 0.132 0.243-0.036 0.327-0.085 0.414-0.24 0.148-0.265 1.074-2.564 2.417-6.001 0.864-2.212 1.601-4.055 1.962-4.907 0.215-0.507 0.223-0.52 0.355-0.548 0.179-0.038 4.058-0.037 4.282 0.001l0.175 0.030 0.209 0.5c0.619 1.477 2.014 5.068 3.642 9.375 1.115 2.95 1.668 4.504 1.737 4.879 0.023 0.127 0.018 0.139-0.082 0.163-0.059 0.014-0.609 0.036-1.223 0.047-1.118 0.021-2.321-0.027-2.514-0.101-0.12-0.046-0.156-0.127-0.511-1.155-0.281-0.813-0.557-1.458-0.647-1.514-0.169-0.104-5.599-0.088-5.871 0.017-0.125 0.049-0.219 0.24-0.515 1.044-0.333 0.905-0.576 1.511-0.626 1.563-0.029 0.030-0.2 0.064-0.422 0.084-0.549 0.049-3.631 0.073-4.711 0.037zM53.754 9.051c0.054-0.023 0.108-0.066 0.119-0.095 0.033-0.087-0.145-0.71-0.554-1.94-0.424-1.271-0.866-2.483-1.069-2.929-0.127-0.278-0.129-0.281-0.201-0.208-0.102 0.103-0.297 0.615-0.866 2.277-0.793 2.317-0.91 2.739-0.785 2.842 0.097 0.080 0.684 0.11 2.010 0.103 0.827-0.005 1.282-0.022 1.347-0.050z"></path>
</svg>
