<?xml version="1.0" encoding="UTF-8" standalone="no"?>
<!-- Uploaded to: SVG Repo, www.svgrepo.com, Generator: SVG Repo Mixer Tools -->

<svg
   width="886.66699"
   height="886.66699"
   viewBox="0 0 26.60001 26.60001"
   fill="none"
   version="1.1"
   id="svg2"
   sodipodi:docname="icon.svg"
   inkscape:version="1.3 (0e150ed6c4, 2023-07-21)"
   xmlns:inkscape="http://www.inkscape.org/namespaces/inkscape"
   xmlns:sodipodi="http://sodipodi.sourceforge.net/DTD/sodipodi-0.dtd"
   xmlns="http://www.w3.org/2000/svg"
   xmlns:svg="http://www.w3.org/2000/svg">
  <defs
     id="defs2" />
  <sodipodi:namedview
     id="namedview2"
     pagecolor="#ffffff"
     bordercolor="#666666"
     borderopacity="1.0"
     inkscape:showpageshadow="2"
     inkscape:pageopacity="0.0"
     inkscape:pagecheckerboard="0"
     inkscape:deskcolor="#d1d1d1"
     showgrid="false"
     inkscape:zoom="1.47625"
     inkscape:cx="333.61558"
     inkscape:cy="441.99831"
     inkscape:window-width="2560"
     inkscape:window-height="1377"
     inkscape:window-x="-8"
     inkscape:window-y="-8"
     inkscape:window-maximized="1"
     inkscape:current-layer="svg2">
    <sodipodi:guide
       position="0,20.000001"
       orientation="0,666.66669"
       id="guide1"
       inkscape:locked="false" />
    <sodipodi:guide
       position="20.000001,20.000001"
       orientation="666.66669,0"
       id="guide2"
       inkscape:locked="false" />
    <sodipodi:guide
       position="20.000001,0"
       orientation="0,-666.66669"
       id="guide3"
       inkscape:locked="false" />
    <sodipodi:guide
       position="0,0"
       orientation="-666.66669,0"
       id="guide4"
       inkscape:locked="false" />
  </sodipodi:namedview>
  <g
     id="g4"
     transform="translate(3.300005,3.300005)">
    <path
       stroke="#000000"
       stroke-linecap="round"
       stroke-linejoin="round"
       stroke-width="2"
       d="M 5,1 H 3 A 2,2 0 0 0 1,3 v 2 m 0,10 v 2 a 2,2 0 0 0 2,2 h 2 m 10,0 h 2 a 2,2 0 0 0 2,-2 V 15 M 19,5 V 3 A 2,2 0 0 0 17,1 h -2"
       id="path1" />
    <circle
       cx="10"
       cy="7"
       stroke="#000000"
       stroke-linecap="round"
       stroke-linejoin="round"
       stroke-width="2"
       id="circle1"
       r="3" />
    <path
       stroke="#000000"
       stroke-linecap="round"
       stroke-linejoin="round"
       stroke-width="2"
       d="m 15,14 c 0,-2.21 -2.239,-4 -5,-4 -2.761,0 -5,1.79 -5,4"
       id="path2" />
  </g>
</svg>
